# xmcd
#
# Track frame offsets:
#	150
#	18348
#	38338
#	53115
#	72805
#	86890
#	109263
#	130410
#	147160
#	160320
#	177500
#	193901
#	210160
#	217892
#	235707
#	258785
#	279103
#	300750
#
# Disc length: 4246
#
# Revision: 1
# Processed by: cddbd v1.5.1PL0 Copyright (c) Steve Scherf et al.
# Submitted via: CDex 1.51
# Normalized: r0:DSETVAR1,TDELIM( - )
#
DISCID=ec109412
DTITLE=Various Artist - Premium X'mas
DYEAR=2003
DGENRE=General Pop
TTITLE0=Mariah Carey - All I Want For Christmas Is You
TTITLE1=Wham! - Last Christmas
TTITLE2='N Sync - The Christmas Song
TTITLE3=Celine Dion and Clive Griffin - When I Fall In Love
TTITLE4=Elvis Costello - She
TTITLE5=Babyface - Every Time I Close My Eyes
TTITLE6=Aaron Neville - Ave Maria
TTITLE7=Destiny's Child - Silent Night
TTITLE8=Macy Gray - Winter Wonderland
TTITLE9=Cyndi Lauper - True Colores
TTITLE10=Miles Davis - Time After Time
TTITLE11=Beverley Craven - Promise Me
TTITLE12=Vonda Shepard - Silver Bells
TTITLE13=New Kids On The Block - This One's For The Children
TTITLE14=Luther Vandross - Every Year,Every Christmas
TTITLE15=Sarah McLachlan - Angel
TTITLE16=坂本龍一 - Merry Christmas Mr.Lawrence
TTITLE17=鳥山雄司 With 葉加瀬太郎 - Happy Christmas (War Is Over)
EXTD=YEAR: 2003
EXTT0=
EXTT1=
EXTT2=
EXTT3=
EXTT4=
EXTT5=
EXTT6=
EXTT7=
EXTT8=
EXTT9=
EXTT10=
EXTT11=
EXTT12=
EXTT13=
EXTT14=
EXTT15=
EXTT16=
EXTT17=
PLAYORDER=
